<svg width="200" height="229" viewBox="0 0 200 229" fill="none" xmlns="http://www.w3.org/2000/svg">
<path fill-rule="evenodd" clip-rule="evenodd" d="M72.5171 23.8518C57.2057 23.8518 43.0574 32.0357 35.4017 45.3206L7.90882 93.0289C0.253138 106.314 0.253124 122.682 7.90882 135.966L35.4017 183.675C43.0574 196.96 57.2057 205.144 72.5171 205.144H127.503C142.814 205.144 156.962 196.96 164.618 183.675L192.111 135.966C199.767 122.682 199.767 106.314 192.111 93.0289L164.618 45.3206C156.962 32.0357 142.814 23.8518 127.503 23.8518H72.5171ZM127.503 52.4768L93.1367 52.4768C87.6381 52.4768 84.2024 58.4399 86.9559 63.2083C95.4511 77.9206 103.966 92.6218 112.449 107.341C115.001 111.77 115.001 117.226 112.449 121.654C103.966 136.374 95.4511 151.075 86.9558 165.787C84.2024 170.555 87.6381 176.519 93.1367 176.519H127.503C132.607 176.519 137.323 173.791 139.875 169.362L167.367 121.654C169.919 117.226 169.919 111.77 167.367 107.341L139.875 59.6331C137.323 55.2048 132.607 52.4768 127.503 52.4768Z" fill="#D97757"/>
</svg>
